<svg xmlns="http://www.w3.org/2000/svg" viewBox="0 0 256 256"><path d="M128 2.475c-32.15 0-64.36 12.265-88.82 36.724-48.919 48.919-48.915 128.72.004 177.639 48.918 48.918 128.716 48.918 177.634 0 48.919-48.918 48.919-128.719 0-177.637C192.36 14.742 160.15 2.475 128 2.475zm0 34.832c17.658 0 35.29 5.15 50.545 15.447L52.732 178.564C28.906 143.28 32.58 95.244 63.902 63.92 81.682 46.14 104.816 37.306 128 37.307zm75.27 40.166c23.828 35.284 20.154 83.32-11.17 114.644-31.325 31.325-79.36 35-114.645 11.17L203.27 77.473z"/></svg>