<svg xmlns="http://www.w3.org/2000/svg" viewBox="0 0 86.648 61.6"><path fill="#bd4bff" d="M37.805 0a4.331 4.331 0 0 0-.845.09 1.625 1.625 0 0 0-.149.039c-.103.032-.202.076-.3.115a4.333 4.333 0 0 0-.493.186 1.625 1.625 0 0 0-.047.023 4.33 4.33 0 0 0-.773.498c-.078.05-.156.1-.23.154a1.625 1.625 0 0 0-.194.165L20.698 15.348c-5.37-2.73-12.064-2.007-16.533 2.46-5.553 5.554-5.553 14.649 0 20.202 5.553 5.553 14.648 5.553 20.2 0 4.469-4.468 5.19-11.166 2.462-16.535l8.398-8.399 4.762 22.992 1.746 8.428 1.592 7.678v.002l1.242 5.996a1.625 1.625 0 0 0 .04.154c.05.162.112.319.18.473.039.105.073.211.118.312a1.625 1.625 0 0 0 .023.051c.138.282.314.542.51.787.043.068.087.136.133.201a1.625 1.625 0 0 0 .305.3c.36.336.768.616 1.22.812a1.625 1.625 0 0 0 .15.056c.104.033.21.063.315.088l-.16-.047c.385.135.79.215 1.197.237a1.625 1.625 0 0 0 .063.004c.11.002.22-.009.33-.016a4.16 4.16 0 0 0 .55-.027 1.625 1.625 0 0 0 .16-.026 4.327 4.327 0 0 0 .79-.252 1.625 1.625 0 0 0 .002 0 4.333 4.333 0 0 0 1.36-.908 1.625 1.625 0 0 0 .023-.015l14.078-14.079c5.369 2.728 12.063 2.01 16.531-2.459 5.553-5.553 5.55-14.649-.002-20.2a14.256 14.256 0 0 0-10.098-4.173 14.26 14.26 0 0 0-10.1 4.172c-4.468 4.47-5.191 11.166-2.462 16.535l-8.398 8.397-5.258-25.381-1.25-6.037-1.592-7.678-1.242-5.998a1.625 1.625 0 0 0-.008-.031v-.002a4.334 4.334 0 0 0-.414-1.125l-.004-.006v-.002a1.625 1.625 0 0 0-.02-.043 4.341 4.341 0 0 0-.732-.977 1.625 1.625 0 0 0-.05-.043 4.338 4.338 0 0 0-1.243-.828 1.625 1.625 0 0 0-.041-.015c-.074-.03-.15-.053-.225-.078a4.317 4.317 0 0 0-.57-.2 1.625 1.625 0 0 0-.127-.029 4.333 4.333 0 0 0-.812-.074A1.625 1.625 0 0 0 37.805 0zm3.856 2.297.062.13-.02-.048a1.625 1.625 0 0 0-.042-.082ZM14.264 20.875a6.97 6.97 0 0 1 4.963 2.068c2.78 2.78 2.78 7.151 0 9.93-2.778 2.779-7.147 2.779-9.926 0-2.778-2.779-2.778-7.15 0-9.93a6.97 6.97 0 0 1 4.963-2.068Zm58.121 5.809a6.97 6.97 0 0 1 4.963 2.068c2.778 2.779 2.778 7.15 0 9.93-2.779 2.778-7.15 2.778-9.93 0-2.777-2.78-2.777-7.151 0-9.93a6.976 6.976 0 0 1 4.967-2.068zM45.92 60.494a1.625 1.625 0 0 0 .047.045l.074.05z"/></svg>