<?xml version="1.0" encoding="UTF-8" standalone="no"?>
<svg
   viewBox="0 0 121.61328 121.613"
   version="1.1"
   id="svg1"
   sodipodi:docname="docs.svg"
   width="121.61328"
   height="121.613"
   inkscape:version="1.3.2 (1:1.3.2+202311252150+091e20ef0f)"
   xmlns:inkscape="http://www.inkscape.org/namespaces/inkscape"
   xmlns:sodipodi="http://sodipodi.sourceforge.net/DTD/sodipodi-0.dtd"
   xmlns="http://www.w3.org/2000/svg"
   xmlns:svg="http://www.w3.org/2000/svg">
  <defs
     id="defs1" />
  <sodipodi:namedview
     id="namedview1"
     pagecolor="#505050"
     bordercolor="#eeeeee"
     borderopacity="1"
     inkscape:showpageshadow="0"
     inkscape:pageopacity="0"
     inkscape:pagecheckerboard="0"
     inkscape:deskcolor="#d1d1d1"
     inkscape:zoom="2.4478981"
     inkscape:cx="1.8383118"
     inkscape:cy="42.689685"
     inkscape:current-layer="svg1" />
  <path
     id="rect3"
     style="fill:#d48aff;fill-opacity:1;stroke:none;stroke-width:3;stroke-linecap:round;stroke-linejoin:round;stroke-opacity:1"
     d="m 31.74805,14.605963 c -10.80782,0.0704 -20.88841,3.39943 -30.4707098,8.35547 C 0.49278018,23.367743 1.4018467e-4,24.177513 1.8466863e-7,25.061043 V 104.63916 C -6.7981533e-4,106.41166 1.8767302,107.55489 3.4511702,106.74072 20.67337,97.833323 38.29587,94.725713 59.64844,106.70362 c 0.304,0.16015 0.63925,0.25214 0.98242,0.26954 0.0571,0.006 0.11446,0.01 0.17187,0.0117 0.35557,7.4e-4 0.70673,-0.0787 1.02735,-0.23242 0.0209,-0.004 0.0417,-0.008 0.0625,-0.0117 17.22219,-8.907397 34.84859,-12.015007 56.20117,-0.0371 1.57661,0.88203 3.51997,-0.25789 3.51953,-2.06445 V 25.061073 c 8.7e-4,-0.85587 -0.46076,-1.64542 -1.20703,-2.06446 -10.62303,-5.95907 -20.68253,-8.45272 -30.21875,-8.39062 -10.38114,0.0676 -20.08242,3.1566 -29.32422,7.79101 -10.21681,-5.52137 -19.90977,-7.85091 -29.11523,-7.79101 z" />
  <path
     id="rect1"
     style="color:#000000;fill:#bd4bff;fill-opacity:1;stroke-width:2.08846;stroke-linecap:round;stroke-linejoin:round;-inkscape-stroke:none"
     d="m 31.747091,14.6077 c -10.80783,0.0704 -20.88839,3.39748 -30.4707002,8.35352 a 2.3648959,2.3648959 0 0 0 -1.27538999,2.10156 v 79.57813 a 2.3648959,2.3648959 0 0 0 3.44921999,2.10156 C 20.672431,97.83505 38.294901,94.72743 59.647481,106.70537 a 2.3648959,2.3648959 0 0 0 0.98438,0.26953 2.3648959,2.3648959 0 0 0 0.16992,0.0117 2.3648959,2.3648959 0 0 0 1.0293,-0.23242 2.3648959,2.3648959 0 0 0 0.0605,-0.0117 c 17.22221,-8.90742 34.84857,-12.01504 56.201169,-0.0371 a 2.3648959,2.3648959 0 0 0 3.51953,-2.06445 V 25.0628 a 2.3648959,2.3648959 0 0 0 -1.20703,-2.06445 c -10.62304,-5.95909 -20.680569,-8.4527 -30.216799,-8.39063 -10.38115,0.0676 -20.08241,3.15659 -29.32422,7.79102 -10.21682,-5.52139 -19.91172,-7.85094 -29.11719,-7.79102 z m 0.0293,4.72852 c 8.33345,-0.0542 17.14127,2.17152 26.66406,7.28125 v 2.82422 c 0.33113,0.20759 0.64778,0.43689 0.93164,0.70703 0.005,0.005 0.0106,0.008 0.0156,0.0117 l 0.0312,0.0273 0.0312,0.0312 c 0.38859,0.38961 0.71963,0.83205 0.98437,1.31445 l 0.0156,0.0254 -0.0176,-0.0254 0.0254,0.0508 0.008,0.0137 c 0.001,0.001 0.001,0.003 0.002,0.004 0.009,0.016 0.0174,0.0326 0.0254,0.0488 0.002,0.003 0.003,0.007 0.004,0.01 0.004,0.008 0.008,0.0174 0.0117,0.0254 l 0.0508,0.10351 -0.004,0.002 0.0312,0.0684 -0.0215,0.0117 c 0.18514,0.39166 0.35307,0.79142 0.44727,1.21484 l -0.006,-0.041 c 0.005,0.0199 0.0106,0.0406 0.0156,0.0606 l 0.006,0.0273 0.0215,0.10157 0.008,0.0371 v 0.002 l 1.21875,5.88476 0.89648,4.32422 V 26.64128 c 8.74307,-4.36164 17.64002,-7.24347 27.04297,-7.30469 8.33347,-0.0542 17.147149,2.17152 26.669929,7.28125 v 74.26562 C 97.068751,91.09781 79.359191,93.5542 63.173061,101.12175 v -8.96094 c -0.15705,-0.11573 -0.31233,-0.23164 -0.46289,-0.35352 l -0.0254,0.0352 -0.16796,-0.11328 -0.082,-0.0762 c -0.0307,-0.0282 -0.0623,-0.0565 -0.0918,-0.0859 l 0.002,-0.002 0.008,-0.01 c -0.17447,-0.14451 -0.34305,-0.29565 -0.48242,-0.47461 l -0.0215,-0.0254 -0.0195,-0.0293 c -0.0611,-0.0863 -0.10823,-0.16096 -0.15235,-0.23047 -0.21972,-0.28413 -0.43402,-0.59854 -0.61328,-0.96484 l -0.006,-0.01 -0.004,-0.01 c -0.0153,-0.0325 -0.0288,-0.0648 -0.043,-0.0977 -0.0637,-0.14565 -0.0893,-0.22913 -0.11329,-0.29883 -0.0841,-0.19041 -0.16773,-0.40178 -0.24023,-0.63672 -0.03,-0.0962 -0.0557,-0.19231 -0.0762,-0.29101 v -0.002 l -1.27344,-6.14649 v -0.002 l -0.86719,-4.1836 v 22.73047 C 38.624391,91.09869 20.913161,93.55346 4.7277208,101.1209 V 26.64043 C 13.471871,22.27779 22.372351,19.39696 31.776551,19.33574 Z m 30.56836,72.22851 0.11133,0.0937 c -0.0248,-0.0186 -0.0422,-0.0451 -0.0664,-0.0644 -0.0129,-0.0118 -0.0321,-0.0174 -0.0449,-0.0293 z m -3.9043,-56.13867 v 27.94141 l 0.49805,2.4043 1.74609,8.42773 1.62305,7.83008 v 0.002 l 0.86523,4.17578 v -27.9375 l -0.99218,-4.78906 -1.25,-6.03711 -1.5918,-7.67773 z" />
  <path
     fill="#bd4bff"
     d="m 55.287328,30.006375 a 4.331,4.331 0 0 0 -0.845,0.09 1.625,1.625 0 0 0 -0.149,0.039 c -0.103,0.032 -0.202,0.076 -0.3,0.115 a 4.333,4.333 0 0 0 -0.493,0.186 1.625,1.625 0 0 0 -0.047,0.023 4.33,4.33 0 0 0 -0.773,0.498 c -0.078,0.05 -0.156,0.1 -0.23,0.154 a 1.625,1.625 0 0 0 -0.194,0.165 l -14.076,14.078 c -5.37,-2.73 -12.064,-2.007 -16.533,2.46 -5.553,5.554 -5.553,14.649 0,20.20201 5.553,5.553 14.648,5.553 20.2,0 4.469,-4.46801 5.19,-11.16601 2.462,-16.53501 l 8.398,-8.399 4.762,22.99201 1.746,8.428 1.592,7.678 v 0.002 l 1.242,5.996 a 1.625,1.625 0 0 0 0.04,0.154 c 0.05,0.162 0.112,0.319 0.18,0.473 0.039,0.105 0.073,0.211 0.118,0.312 a 1.625,1.625 0 0 0 0.023,0.051 c 0.138,0.282 0.314,0.542 0.51,0.787 0.043,0.068 0.087,0.136 0.133,0.201 a 1.625,1.625 0 0 0 0.305,0.3 c 0.36,0.336 0.768,0.616 1.22,0.812 a 1.625,1.625 0 0 0 0.15,0.056 c 0.104,0.033 0.21,0.063 0.315,0.088 l -0.16,-0.047 c 0.385,0.135 0.79,0.215 1.197,0.237 a 1.625,1.625 0 0 0 0.063,0.004 c 0.11,0.002 0.22,-0.009 0.33,-0.016 a 4.16,4.16 0 0 0 0.55,-0.027 1.625,1.625 0 0 0 0.16,-0.026 4.327,4.327 0 0 0 0.79,-0.252 1.625,1.625 0 0 0 0.002,0 4.333,4.333 0 0 0 1.36,-0.908 1.625,1.625 0 0 0 0.023,-0.015 l 14.078,-14.079 c 5.369,2.728 12.063,2.01 16.531,-2.459 5.553002,-5.553 5.550002,-14.64901 -0.002,-20.20001 a 14.256,14.256 0 0 0 -10.098,-4.173 14.26,14.26 0 0 0 -10.1,4.172 c -4.468,4.47 -5.191,11.16601 -2.462,16.53501 l -8.398,8.397 -5.258,-25.38101 -1.25,-6.037 -1.592,-7.678 -1.242,-5.998 a 1.625,1.625 0 0 0 -0.008,-0.031 v -0.002 a 4.334,4.334 0 0 0 -0.414,-1.125 l -0.004,-0.006 v -0.002 a 1.625,1.625 0 0 0 -0.02,-0.043 4.341,4.341 0 0 0 -0.732,-0.977 1.625,1.625 0 0 0 -0.05,-0.043 4.338,4.338 0 0 0 -1.243,-0.828 1.625,1.625 0 0 0 -0.041,-0.015 c -0.074,-0.03 -0.15,-0.053 -0.225,-0.078 a 4.317,4.317 0 0 0 -0.57,-0.2 1.625,1.625 0 0 0 -0.127,-0.029 4.333,4.333 0 0 0 -0.812,-0.074 1.625,1.625 0 0 0 -0.032,-0.002 z m 3.856,2.297 0.062,0.13 -0.02,-0.048 a 1.625,1.625 0 0 0 -0.042,-0.082 z m -27.397,18.578 a 6.97,6.97 0 0 1 4.963,2.068 c 2.78,2.78 2.78,7.151 0,9.93 -2.778,2.77901 -7.147,2.77901 -9.926,0 -2.778,-2.779 -2.778,-7.15 0,-9.93 a 6.97,6.97 0 0 1 4.963,-2.068 z m 58.121,5.809 a 6.97,6.97 0 0 1 4.963,2.068 c 2.778,2.779 2.778,7.15001 0,9.93001 -2.779,2.778 -7.15,2.778 -9.93,0 -2.777,-2.78 -2.777,-7.15101 0,-9.93001 a 6.976,6.976 0 0 1 4.967,-2.068 z m -26.465,33.81001 a 1.625,1.625 0 0 0 0.047,0.045 l 0.074,0.05 z"
     id="path1" />
</svg>
