<svg xmlns="http://www.w3.org/2000/svg" viewBox="0 0 61.494 61.6"><path fill="#fff" d="M3.064 0A3.058 3.058 0 0 0 0 3.064v3.383a3.058 3.058 0 0 0 3.064 3.065H58.43a3.058 3.058 0 0 0 3.064-3.065V3.064A3.058 3.058 0 0 0 58.43 0Zm0 26.043A3.06 3.06 0 0 0 0 29.109v3.383a3.058 3.058 0 0 0 3.064 3.065H58.43a3.058 3.058 0 0 0 3.064-3.065V29.11a3.06 3.06 0 0 0-3.064-3.066zm0 26.045A3.058 3.058 0 0 0 0 55.152v3.383A3.058 3.058 0 0 0 3.064 61.6H58.43a3.058 3.058 0 0 0 3.064-3.065v-3.383a3.058 3.058 0 0 0-3.064-3.064z"/></svg>