<svg xmlns="http://www.w3.org/2000/svg" viewBox="0 0 128 128"><path fill="#b83fff" d="m0 3.337 11.017 94.299L64 124.609V3.337Z"/><path fill="#c257ff" d="M64 3.337v121.272l.054.055 53.005-26.985 10.94-94.342z"/><path fill="#cb71ff" d="m15.08 18.622 7.03 70.608L64 109.465V18.622Z"/><path fill="#d48aff" d="M64 18.622v90.843l.054.054 41.912-20.322 6.955-70.575z"/><path fill="#b83fff" d="M58.48 33.188a4.331 4.331 0 0 0-.846.09 1.625 1.625 0 0 0-.148.039c-.103.032-.201.075-.3.114a4.333 4.333 0 0 0-.492.186 1.625 1.625 0 0 0-.048.024 4.33 4.33 0 0 0-.773.497c-.078.05-.155.1-.23.154a1.625 1.625 0 0 0-.193.165L41.374 48.536c-5.37-2.729-12.066-2.008-16.535 2.46-5.553 5.553-5.553 14.649 0 20.202 5.553 5.553 14.649 5.553 20.202 0 4.468-4.468 5.189-11.166 2.46-16.535l8.4-8.4 4.762 22.993 1.746 8.427L64 85.363V42.64l-1.242-5.997a1.625 1.625 0 0 0-.008-.032v-.002a4.334 4.334 0 0 0-.417-1.132 1.625 1.625 0 0 0-.021-.044 4.341 4.341 0 0 0-.732-.976 1.625 1.625 0 0 0-.051-.042 4.338 4.338 0 0 0-1.242-.83 1.625 1.625 0 0 0-.04-.014c-.074-.03-.15-.053-.225-.078a4.317 4.317 0 0 0-.57-.2 1.625 1.625 0 0 0-.128-.029 4.333 4.333 0 0 0-.812-.074 1.625 1.625 0 0 0-.032-.002zm3.853 2.29.065.137-.02-.049a1.625 1.625 0 0 0-.045-.089zM34.94 54.063a6.97 6.97 0 0 1 4.963 2.067c2.78 2.78 2.78 7.151 0 9.93-2.778 2.779-7.148 2.779-9.927 0-2.778-2.779-2.778-7.15 0-9.93a6.97 6.97 0 0 1 4.964-2.067z"/><path fill="#c257ff" d="M64 42.64v42.722l1.242 5.997a1.625 1.625 0 0 0 .04.154c.05.162.111.32.18.474.038.105.073.21.118.311a1.625 1.625 0 0 0 .024.051c.138.282.314.542.51.787.043.068.087.136.133.201a1.625 1.625 0 0 0 .303.3c.36.337.77.617 1.222.813a1.625 1.625 0 0 0 .149.055c.103.033.209.064.315.089l-.159-.047c.385.135.788.215 1.196.237a1.625 1.625 0 0 0 .063.003c.11.002.22-.008.33-.015a4.16 4.16 0 0 0 .55-.028 1.625 1.625 0 0 0 .16-.025 4.327 4.327 0 0 0 .79-.252 1.625 1.625 0 0 0 .002 0 4.333 4.333 0 0 0 1.36-.908 1.625 1.625 0 0 0 .022-.016l14.078-14.079c5.369 2.728 12.065 2.01 16.533-2.458 5.553-5.553 5.55-14.65-.002-20.202a14.256 14.256 0 0 0-10.099-4.172 14.26 14.26 0 0 0-10.1 4.172c-4.469 4.469-5.19 11.166-2.461 16.535l-8.4 8.398-5.257-25.381-1.25-6.037zm29.06 17.232a6.97 6.97 0 0 1 4.964 2.067c2.778 2.779 2.778 7.15 0 9.93-2.779 2.778-7.15 2.778-9.93 0-2.778-2.78-2.778-7.151 0-9.93a6.976 6.976 0 0 1 4.966-2.067zm-26.466 33.81a1.625 1.625 0 0 0 .046.045l.075.05z"/></svg>
