<svg xmlns="http://www.w3.org/2000/svg" viewBox="0 0 520.25 130.73"><path fill="#ffca00" d="M.635 0H520.25v130.73H.635z"/><path d="M31.762 0 0 39.414h30.492L62.252 0Zm60.98 0-31.76 39.414h30.49L123.235 0Zm60.983 0-31.762 39.414h30.492L184.215 0Zm60.982 0-31.762 39.414h30.49L245.198 0Zm60.98 0-31.76 39.414h30.49L306.178 0Zm60.983 0-31.762 39.414H335.4L367.16 0Zm60.98 0-31.76 39.414h30.49L428.144 0Zm60.983 0-31.76 39.414h30.49L489.123 0Zm60.347.787-30.49 37.838h30.492z"/><path fill="#ffca00" d="m62.252 0-31.76 39.414h30.49L92.742 0Zm60.982 0L91.473 39.414h30.49L153.725 0Zm60.98 0-31.759 39.414h30.49L214.707 0Zm60.983 0-31.761 39.414h30.492L275.688 0Zm60.98 0-31.76 39.414h30.491L336.67 0Zm60.983 0L335.4 39.414h30.49L397.65 0Zm60.983 0L396.38 39.414h30.492L458.633 0Zm60.98 0-31.76 39.414h30.49L519.615 0ZM.635.787v37.838L31.126.787z"/><path d="M78.418 51.986v17.288q0 2.662-1.087 4.78-1.069 2.1-3.225 3.338-2.138 1.22-5.363 1.22-3.243 0-5.4-1.182-2.137-1.181-3.206-3.281t-1.069-4.875V51.986h6.169v15q0 3.506.638 5.288.637 1.762 2.868 1.762 2.232 0 2.87-1.762.637-1.782.637-5.288v-15zm14.663 25.988-6.844-20.907q.131.844.281 2.044.17 1.181.32 2.644.15 1.443.243 3.075.094 1.631.094 3.337v9.807h-5.232V51.986h7.67L96.25 72.78q-.206-1.181-.431-2.813-.207-1.65-.357-3.675t-.15-4.35v-9.956h5.232v25.988zm24.582-13.126q0-2.625-.45-4.275-.432-1.65-1.22-2.55-.768-.9-1.818-1.237-1.05-.338-2.269-.338h-1.312V73.53h1.312q1.275 0 2.325-.394 1.07-.412 1.838-1.369.769-.975 1.181-2.662.413-1.688.413-4.257zm6.375 0q0 3.17-.675 5.438-.675 2.25-1.894 3.75-1.2 1.5-2.794 2.363-1.594.862-3.431 1.218-1.838.357-3.788.357h-7.012V51.986h6.562q2.494 0 4.82.525 2.343.506 4.18 1.894 1.857 1.368 2.944 3.9 1.088 2.512 1.088 6.543zm10.594-8.475v6.244h9v4.313h-9v6.637h10.856v4.407H128.48V51.986h16.988l-.619 4.387zm33.919 3.507q0 1.856-.694 3.243-.694 1.388-1.875 2.344-1.181.957-2.644 1.538l6.806 10.969h-6.956l-5.625-9.938h-1.744v9.938h-6.15V51.986h8.175q5.307 0 8.007 1.931 2.7 1.931 2.7 5.963zm-6.338 0q0-1.875-1.106-2.72-1.088-.862-3.244-.862h-2.044v7.52h2.288q2.006 0 3.056-.938 1.05-.938 1.05-3zm43.707-8.55q2.794 0 4.744.75 1.968.73 3.6 2.08l-3.02 3.638q-1.068-.88-2.362-1.387-1.293-.525-2.812-.525-1.631 0-2.981.937-1.35.92-2.157 2.925-.806 1.988-.806 5.175 0 3.132.769 5.12.787 1.968 2.156 2.906 1.369.918 3.131.918 1.95 0 3.244-.73 1.294-.732 2.381-1.595l2.794 3.563q-1.462 1.444-3.6 2.475-2.137 1.031-5.156 1.031-3.525 0-6.263-1.556-2.719-1.575-4.275-4.613-1.537-3.056-1.537-7.519 0-4.35 1.593-7.387 1.613-3.038 4.37-4.613 2.755-1.593 6.187-1.593zm30.73 13.63q0 4.125-1.18 7.2-1.182 3.056-3.507 4.763-2.306 1.687-5.719 1.687-3.394 0-5.719-1.65-2.325-1.669-3.506-4.725-1.181-3.056-1.181-7.275 0-4.125 1.18-7.181 1.182-3.057 3.507-4.744 2.325-1.706 5.719-1.706 3.413 0 5.719 1.65 2.325 1.65 3.506 4.706 1.181 3.056 1.181 7.275zm-6.3 0q0-4.8-.956-6.975t-3.15-2.175q-2.194 0-3.15 2.194-.956 2.175-.956 6.956 0 4.8.975 6.975t3.131 2.175q2.25 0 3.169-2.194.937-2.212.937-6.956zm20.232 13.013-6.844-20.907q.131.844.281 2.044.169 1.181.319 2.644.15 1.443.244 3.075.093 1.631.093 3.337v9.807h-5.23V51.986h7.668l6.638 20.794q-.207-1.181-.432-2.813-.206-1.65-.356-3.675t-.15-4.35v-9.956h5.231v25.988zm30.713-7.594q0 2.419-1.275 4.275-1.257 1.856-3.62 2.906-2.362 1.05-5.68 1.05-3.676 0-6.17-1.069-2.474-1.087-4.106-2.68l3.113-3.45q1.444 1.255 3.187 1.95 1.744.674 3.825.674 1.294 0 2.27-.375.974-.375 1.518-1.087.544-.713.544-1.725 0-.957-.431-1.613-.432-.656-1.463-1.181-1.012-.525-2.831-1.069-3.038-.937-4.894-2.063-1.838-1.125-2.681-2.606-.825-1.481-.825-3.45 0-2.381 1.312-4.069 1.331-1.687 3.563-2.568 2.231-.9 4.912-.9 3.019 0 5.325.88 2.307.863 3.994 2.476l-2.906 3.337q-1.313-1.106-2.831-1.63-1.52-.545-3.094-.545-1.163 0-2.044.3-.881.282-1.369.844-.487.563-.487 1.406 0 .825.468 1.388.47.562 1.632 1.069 1.162.487 3.225 1.143 2.456.75 4.2 1.8 1.762 1.032 2.681 2.607.938 1.575.938 3.975zm15.487-13.688v21.282h-6.15V56.692h-7.294v-4.706h21.038l-.637 4.706zm29.27 3.188q0 1.856-.694 3.243-.694 1.388-1.875 2.344-1.182.957-2.644 1.538l6.806 10.969h-6.956l-5.625-9.938h-1.744v9.938h-6.15V51.986h8.175q5.306 0 8.006 1.931t2.7 5.963zm-6.338 0q0-1.875-1.106-2.72-1.088-.862-3.244-.862h-2.044v7.52h2.287q2.007 0 3.057-.938 1.05-.938 1.05-3zm28.706-7.894v17.288q0 2.662-1.087 4.78-1.069 2.1-3.225 3.338-2.138 1.22-5.363 1.22-3.244 0-5.4-1.182-2.137-1.181-3.206-3.281t-1.069-4.875V51.986h6.169v15q0 3.506.637 5.288.638 1.762 2.87 1.762 2.23 0 2.868-1.762.637-1.782.637-5.288v-15zm15-.656q2.794 0 4.744.75 1.97.73 3.6 2.08l-3.018 3.638q-1.07-.88-2.363-1.387-1.294-.525-2.813-.525-1.63 0-2.98.937-1.35.92-2.157 2.925-.806 1.988-.806 5.175 0 3.132.768 5.12.788 1.968 2.157 2.906 1.368.918 3.131.918 1.95 0 3.244-.73 1.294-.732 2.381-1.595l2.794 3.563q-1.463 1.444-3.6 2.475-2.138 1.031-5.157 1.031-3.525 0-6.262-1.556-2.719-1.575-4.275-4.613-1.538-3.056-1.538-7.519 0-4.35 1.594-7.387 1.613-3.038 4.369-4.613 2.756-1.593 6.187-1.593zm23.363 5.362v21.282h-6.15V56.692h-7.294v-4.706h21.038l-.637 4.706zm27.9-4.706v4.5h-5.362v16.969h5.363v4.519h-16.876v-4.52h5.363V56.487h-5.363v-4.5zm24.47 12.975q0 4.125-1.182 7.2-1.181 3.056-3.506 4.763-2.306 1.687-5.719 1.687-3.394 0-5.719-1.65-2.325-1.669-3.506-4.725-1.181-3.056-1.181-7.275 0-4.125 1.181-7.181 1.181-3.057 3.506-4.744 2.325-1.706 5.72-1.706 3.412 0 5.718 1.65 2.325 1.65 3.506 4.706 1.182 3.056 1.182 7.275zm-6.3 0q0-4.8-.957-6.975-.956-2.175-3.15-2.175t-3.15 2.194q-.956 2.175-.956 6.956 0 4.8.975 6.975t3.131 2.175q2.25 0 3.169-2.194.937-2.212.937-6.956zm20.23 13.013-6.843-20.907q.131.844.281 2.044.17 1.181.32 2.644.15 1.443.243 3.075.094 1.631.094 3.337v9.807h-5.232V51.986h7.67l6.637 20.794q-.207-1.181-.432-2.813-.206-1.65-.356-3.675t-.15-4.35v-9.956h5.232v25.988z"/><path d="M32.397 91.316.635 130.73h30.492l31.76-39.414Zm60.98 0-31.76 39.414h30.49l31.762-39.414Zm60.982 0-31.761 39.414h30.492l31.76-39.414zm60.983 0L183.58 130.73h30.49l31.762-39.414zm60.98 0-31.76 39.414h30.49l31.76-39.414zm60.983 0-31.762 39.414h30.492l31.76-39.414zm60.98 0-31.76 39.414h30.49l31.762-39.414zm60.983 0-31.76 39.414h30.49l31.76-39.414zm60.347.787-30.491 37.838h30.492z"/><path fill="#ffca00" d="m62.887 91.316-31.76 39.414h30.49l31.76-39.414Zm60.982 0L92.107 130.73h30.49l31.762-39.414zm60.98 0-31.76 39.414h30.491l31.762-39.414zm60.983 0L214.07 130.73h30.493l31.76-39.414zm60.98 0-31.76 39.414h30.49l31.763-39.414zm60.983 0-31.76 39.414h30.49l31.76-39.414zm60.982 0-31.761 39.414h30.492l31.76-39.414zm60.98 0-31.759 39.414h30.49l31.762-39.414zM1.27 92.103v37.838l30.49-37.838z"/></svg>